<mxfile host="Electron" agent="Mozilla/5.0 (Windows NT 10.0; Win64; x64) AppleWebKit/537.36 (KHTML, like Gecko) draw.io/26.2.15 Chrome/134.0.6998.205 Electron/35.2.1 Safari/537.36" version="26.2.15">
  <diagram name="Page-1" id="NoKPaxbxFGTv014XOS35">
    <mxGraphModel dx="1042" dy="1734" grid="1" gridSize="10" guides="1" tooltips="1" connect="1" arrows="1" fold="1" page="1" pageScale="1" pageWidth="850" pageHeight="1100" math="0" shadow="0">
      <root>
        <mxCell id="0" />
        <mxCell id="1" parent="0" />
        <mxCell id="Ntmfe4oQLPcponl_sA21-1" value="User" style="swimlane;fontStyle=1;align=center;verticalAlign=top;childLayout=stackLayout;horizontal=1;startSize=26;horizontalStack=0;resizeParent=1;resizeParentMax=0;resizeLast=0;collapsible=1;marginBottom=0;whiteSpace=wrap;html=1;" parent="1" vertex="1">
          <mxGeometry x="330" y="-340" width="160" height="190" as="geometry">
            <mxRectangle x="220" y="160" width="70" height="30" as="alternateBounds" />
          </mxGeometry>
        </mxCell>
        <mxCell id="Ntmfe4oQLPcponl_sA21-2" value="&lt;div&gt;+ userId: String&lt;/div&gt;&lt;div&gt;+ username: String&lt;/div&gt;&lt;div&gt;+ password: String&lt;/div&gt;&lt;div&gt;+ email: String&lt;/div&gt;&lt;div&gt;+ fullName: String&lt;/div&gt;" style="text;strokeColor=none;fillColor=none;align=left;verticalAlign=top;spacingLeft=4;spacingRight=4;overflow=hidden;rotatable=0;points=[[0,0.5],[1,0.5]];portConstraint=eastwest;whiteSpace=wrap;html=1;" parent="Ntmfe4oQLPcponl_sA21-1" vertex="1">
          <mxGeometry y="26" width="160" height="84" as="geometry" />
        </mxCell>
        <mxCell id="Ntmfe4oQLPcponl_sA21-3" value="" style="line;strokeWidth=1;fillColor=none;align=left;verticalAlign=middle;spacingTop=-1;spacingLeft=3;spacingRight=3;rotatable=0;labelPosition=right;points=[];portConstraint=eastwest;strokeColor=inherit;" parent="Ntmfe4oQLPcponl_sA21-1" vertex="1">
          <mxGeometry y="110" width="160" height="8" as="geometry" />
        </mxCell>
        <mxCell id="Ntmfe4oQLPcponl_sA21-4" value="&lt;div&gt;&lt;div&gt;+ login()&lt;/div&gt;&lt;div&gt;+ logout()&lt;/div&gt;&lt;div&gt;+ viewShowtimes()&lt;/div&gt;&lt;div&gt;+ reserveSeat()&lt;/div&gt;&lt;/div&gt;" style="text;strokeColor=none;fillColor=none;align=left;verticalAlign=top;spacingLeft=4;spacingRight=4;overflow=hidden;rotatable=0;points=[[0,0.5],[1,0.5]];portConstraint=eastwest;whiteSpace=wrap;html=1;" parent="Ntmfe4oQLPcponl_sA21-1" vertex="1">
          <mxGeometry y="118" width="160" height="72" as="geometry" />
        </mxCell>
        <mxCell id="Ntmfe4oQLPcponl_sA21-5" value="Movie" style="swimlane;fontStyle=1;align=center;verticalAlign=top;childLayout=stackLayout;horizontal=1;startSize=26;horizontalStack=0;resizeParent=1;resizeParentMax=0;resizeLast=0;collapsible=1;marginBottom=0;whiteSpace=wrap;html=1;" parent="1" vertex="1">
          <mxGeometry x="120" y="110" width="160" height="150" as="geometry" />
        </mxCell>
        <mxCell id="Ntmfe4oQLPcponl_sA21-6" value="&lt;div&gt;+ movieId: String&lt;/div&gt;&lt;div&gt;+ title: String&lt;/div&gt;&lt;div&gt;+ genre: String&lt;/div&gt;&lt;div&gt;+ duration: int&lt;/div&gt;&lt;div&gt;+ description: String&lt;/div&gt;" style="text;strokeColor=none;fillColor=none;align=left;verticalAlign=top;spacingLeft=4;spacingRight=4;overflow=hidden;rotatable=0;points=[[0,0.5],[1,0.5]];portConstraint=eastwest;whiteSpace=wrap;html=1;" parent="Ntmfe4oQLPcponl_sA21-5" vertex="1">
          <mxGeometry y="26" width="160" height="84" as="geometry" />
        </mxCell>
        <mxCell id="Ntmfe4oQLPcponl_sA21-7" value="" style="line;strokeWidth=1;fillColor=none;align=left;verticalAlign=middle;spacingTop=-1;spacingLeft=3;spacingRight=3;rotatable=0;labelPosition=right;points=[];portConstraint=eastwest;strokeColor=inherit;" parent="Ntmfe4oQLPcponl_sA21-5" vertex="1">
          <mxGeometry y="110" width="160" height="8" as="geometry" />
        </mxCell>
        <mxCell id="Ntmfe4oQLPcponl_sA21-8" value="&lt;div&gt;+ getDetails()&lt;/div&gt;" style="text;strokeColor=none;fillColor=none;align=left;verticalAlign=top;spacingLeft=4;spacingRight=4;overflow=hidden;rotatable=0;points=[[0,0.5],[1,0.5]];portConstraint=eastwest;whiteSpace=wrap;html=1;" parent="Ntmfe4oQLPcponl_sA21-5" vertex="1">
          <mxGeometry y="118" width="160" height="32" as="geometry" />
        </mxCell>
        <mxCell id="Ntmfe4oQLPcponl_sA21-9" value="Showtime" style="swimlane;fontStyle=1;align=center;verticalAlign=top;childLayout=stackLayout;horizontal=1;startSize=26;horizontalStack=0;resizeParent=1;resizeParentMax=0;resizeLast=0;collapsible=1;marginBottom=0;whiteSpace=wrap;html=1;" parent="1" vertex="1">
          <mxGeometry x="320" y="360" width="170" height="130" as="geometry">
            <mxRectangle x="320" y="300" width="90" height="30" as="alternateBounds" />
          </mxGeometry>
        </mxCell>
        <mxCell id="Ntmfe4oQLPcponl_sA21-10" value="&lt;div&gt;+ showtimeId: int&lt;/div&gt;&lt;div&gt;+ dateTime: datetime&lt;/div&gt;&lt;div&gt;+ movie: Movie&lt;/div&gt;&lt;div&gt;+ hall: Hall&lt;/div&gt;" style="text;strokeColor=none;fillColor=none;align=left;verticalAlign=top;spacingLeft=4;spacingRight=4;overflow=hidden;rotatable=0;points=[[0,0.5],[1,0.5]];portConstraint=eastwest;whiteSpace=wrap;html=1;" parent="Ntmfe4oQLPcponl_sA21-9" vertex="1">
          <mxGeometry y="26" width="170" height="64" as="geometry" />
        </mxCell>
        <mxCell id="Ntmfe4oQLPcponl_sA21-11" value="" style="line;strokeWidth=1;fillColor=none;align=left;verticalAlign=middle;spacingTop=-1;spacingLeft=3;spacingRight=3;rotatable=0;labelPosition=right;points=[];portConstraint=eastwest;strokeColor=inherit;" parent="Ntmfe4oQLPcponl_sA21-9" vertex="1">
          <mxGeometry y="90" width="170" height="8" as="geometry" />
        </mxCell>
        <mxCell id="Ntmfe4oQLPcponl_sA21-12" value="+ listSeat()" style="text;strokeColor=none;fillColor=none;align=left;verticalAlign=top;spacingLeft=4;spacingRight=4;overflow=hidden;rotatable=0;points=[[0,0.5],[1,0.5]];portConstraint=eastwest;whiteSpace=wrap;html=1;" parent="Ntmfe4oQLPcponl_sA21-9" vertex="1">
          <mxGeometry y="98" width="170" height="32" as="geometry" />
        </mxCell>
        <mxCell id="Ntmfe4oQLPcponl_sA21-21" value="Seat" style="swimlane;fontStyle=1;align=center;verticalAlign=top;childLayout=stackLayout;horizontal=1;startSize=26;horizontalStack=0;resizeParent=1;resizeParentMax=0;resizeLast=0;collapsible=1;marginBottom=0;whiteSpace=wrap;html=1;" parent="1" vertex="1">
          <mxGeometry x="200" y="600" width="160" height="124" as="geometry" />
        </mxCell>
        <mxCell id="Ntmfe4oQLPcponl_sA21-22" value="&lt;div&gt;+ seatId: int&lt;/div&gt;&lt;div&gt;+ seatNumber: string&lt;/div&gt;&lt;div&gt;+ isAvailable: bool&lt;/div&gt;&lt;div&gt;+ row: string&lt;/div&gt;&lt;div&gt;&lt;br&gt;&lt;/div&gt;" style="text;strokeColor=none;fillColor=none;align=left;verticalAlign=top;spacingLeft=4;spacingRight=4;overflow=hidden;rotatable=0;points=[[0,0.5],[1,0.5]];portConstraint=eastwest;whiteSpace=wrap;html=1;flipH=1;" parent="Ntmfe4oQLPcponl_sA21-21" vertex="1">
          <mxGeometry y="26" width="160" height="64" as="geometry" />
        </mxCell>
        <mxCell id="Ntmfe4oQLPcponl_sA21-23" value="" style="line;strokeWidth=1;fillColor=none;align=left;verticalAlign=middle;spacingTop=-1;spacingLeft=3;spacingRight=3;rotatable=0;labelPosition=right;points=[];portConstraint=eastwest;strokeColor=inherit;" parent="Ntmfe4oQLPcponl_sA21-21" vertex="1">
          <mxGeometry y="90" width="160" height="8" as="geometry" />
        </mxCell>
        <mxCell id="Ntmfe4oQLPcponl_sA21-24" value="+ reserve()" style="text;strokeColor=none;fillColor=none;align=left;verticalAlign=top;spacingLeft=4;spacingRight=4;overflow=hidden;rotatable=0;points=[[0,0.5],[1,0.5]];portConstraint=eastwest;whiteSpace=wrap;html=1;" parent="Ntmfe4oQLPcponl_sA21-21" vertex="1">
          <mxGeometry y="98" width="160" height="26" as="geometry" />
        </mxCell>
        <mxCell id="Ntmfe4oQLPcponl_sA21-25" value="Hall" style="swimlane;fontStyle=1;align=center;verticalAlign=top;childLayout=stackLayout;horizontal=1;startSize=26;horizontalStack=0;resizeParent=1;resizeParentMax=0;resizeLast=0;collapsible=1;marginBottom=0;whiteSpace=wrap;html=1;" parent="1" vertex="1">
          <mxGeometry x="470" y="600" width="150" height="114" as="geometry" />
        </mxCell>
        <mxCell id="Ntmfe4oQLPcponl_sA21-26" value="&lt;div&gt;+ hallId: int&lt;/div&gt;&lt;div&gt;+ name: string&lt;/div&gt;&lt;div&gt;+ capacity: int&lt;/div&gt;" style="text;strokeColor=none;fillColor=none;align=left;verticalAlign=top;spacingLeft=4;spacingRight=4;overflow=hidden;rotatable=0;points=[[0,0.5],[1,0.5]];portConstraint=eastwest;whiteSpace=wrap;html=1;" parent="Ntmfe4oQLPcponl_sA21-25" vertex="1">
          <mxGeometry y="26" width="150" height="54" as="geometry" />
        </mxCell>
        <mxCell id="Ntmfe4oQLPcponl_sA21-27" value="" style="line;strokeWidth=1;fillColor=none;align=left;verticalAlign=middle;spacingTop=-1;spacingLeft=3;spacingRight=3;rotatable=0;labelPosition=right;points=[];portConstraint=eastwest;strokeColor=inherit;" parent="Ntmfe4oQLPcponl_sA21-25" vertex="1">
          <mxGeometry y="80" width="150" height="8" as="geometry" />
        </mxCell>
        <mxCell id="Ntmfe4oQLPcponl_sA21-28" value="+ getAvailableSeats()" style="text;strokeColor=none;fillColor=none;align=left;verticalAlign=top;spacingLeft=4;spacingRight=4;overflow=hidden;rotatable=0;points=[[0,0.5],[1,0.5]];portConstraint=eastwest;whiteSpace=wrap;html=1;" parent="Ntmfe4oQLPcponl_sA21-25" vertex="1">
          <mxGeometry y="88" width="150" height="26" as="geometry" />
        </mxCell>
        <mxCell id="Ntmfe4oQLPcponl_sA21-56" style="edgeStyle=orthogonalEdgeStyle;rounded=0;orthogonalLoop=1;jettySize=auto;html=1;entryX=1.02;entryY=0.71;entryDx=0;entryDy=0;entryPerimeter=0;" parent="1" source="Ntmfe4oQLPcponl_sA21-45" target="Ntmfe4oQLPcponl_sA21-2" edge="1">
          <mxGeometry relative="1" as="geometry" />
        </mxCell>
        <mxCell id="Ntmfe4oQLPcponl_sA21-61" value="&lt;b&gt;inheritance&lt;/b&gt;" style="edgeLabel;html=1;align=center;verticalAlign=middle;resizable=0;points=[];" parent="Ntmfe4oQLPcponl_sA21-56" vertex="1" connectable="0">
          <mxGeometry x="-0.0242" y="-2" relative="1" as="geometry">
            <mxPoint as="offset" />
          </mxGeometry>
        </mxCell>
        <mxCell id="Ntmfe4oQLPcponl_sA21-45" value="Admin" style="swimlane;fontStyle=1;align=center;verticalAlign=top;childLayout=stackLayout;horizontal=1;startSize=26;horizontalStack=0;resizeParent=1;resizeParentMax=0;resizeLast=0;collapsible=1;marginBottom=0;whiteSpace=wrap;html=1;" parent="1" vertex="1">
          <mxGeometry x="530" y="-90" width="160" height="110" as="geometry" />
        </mxCell>
        <mxCell id="Ntmfe4oQLPcponl_sA21-46" value="+ field: type" style="text;strokeColor=none;fillColor=none;align=left;verticalAlign=top;spacingLeft=4;spacingRight=4;overflow=hidden;rotatable=0;points=[[0,0.5],[1,0.5]];portConstraint=eastwest;whiteSpace=wrap;html=1;" parent="Ntmfe4oQLPcponl_sA21-45" vertex="1">
          <mxGeometry y="26" width="160" height="4" as="geometry" />
        </mxCell>
        <mxCell id="Ntmfe4oQLPcponl_sA21-47" value="" style="line;strokeWidth=1;fillColor=none;align=left;verticalAlign=middle;spacingTop=-1;spacingLeft=3;spacingRight=3;rotatable=0;labelPosition=right;points=[];portConstraint=eastwest;strokeColor=inherit;" parent="Ntmfe4oQLPcponl_sA21-45" vertex="1">
          <mxGeometry y="30" width="160" as="geometry" />
        </mxCell>
        <mxCell id="Ntmfe4oQLPcponl_sA21-48" value="&lt;div&gt;+ manageUsers()&lt;/div&gt;&lt;div&gt;+ manageManagers()&lt;/div&gt;&lt;div&gt;+ viewReports()&lt;/div&gt;&lt;div&gt;+ updateServers()&lt;/div&gt;" style="text;strokeColor=none;fillColor=none;align=left;verticalAlign=top;spacingLeft=4;spacingRight=4;overflow=hidden;rotatable=0;points=[[0,0.5],[1,0.5]];portConstraint=eastwest;whiteSpace=wrap;html=1;" parent="Ntmfe4oQLPcponl_sA21-45" vertex="1">
          <mxGeometry y="30" width="160" height="80" as="geometry" />
        </mxCell>
        <mxCell id="Ntmfe4oQLPcponl_sA21-50" value="MovieManager" style="swimlane;fontStyle=1;align=center;verticalAlign=top;childLayout=stackLayout;horizontal=1;startSize=26;horizontalStack=0;resizeParent=1;resizeParentMax=0;resizeLast=0;collapsible=1;marginBottom=0;whiteSpace=wrap;html=1;" parent="1" vertex="1">
          <mxGeometry x="120" y="-90" width="160" height="100" as="geometry" />
        </mxCell>
        <mxCell id="Ntmfe4oQLPcponl_sA21-52" value="" style="line;strokeWidth=1;fillColor=none;align=left;verticalAlign=middle;spacingTop=-1;spacingLeft=3;spacingRight=3;rotatable=0;labelPosition=right;points=[];portConstraint=eastwest;strokeColor=inherit;" parent="Ntmfe4oQLPcponl_sA21-50" vertex="1">
          <mxGeometry y="26" width="160" height="4" as="geometry" />
        </mxCell>
        <mxCell id="Ntmfe4oQLPcponl_sA21-53" value="&lt;div&gt;+ addMovie()&lt;/div&gt;&lt;div&gt;+ editMovie()&lt;/div&gt;&lt;div&gt;+ deleteMovie()&lt;/div&gt;&lt;div&gt;+ scheduleShowtime()&lt;/div&gt;" style="text;strokeColor=none;fillColor=none;align=left;verticalAlign=top;spacingLeft=4;spacingRight=4;overflow=hidden;rotatable=0;points=[[0,0.5],[1,0.5]];portConstraint=eastwest;whiteSpace=wrap;html=1;" parent="Ntmfe4oQLPcponl_sA21-50" vertex="1">
          <mxGeometry y="30" width="160" height="70" as="geometry" />
        </mxCell>
        <mxCell id="Ntmfe4oQLPcponl_sA21-55" style="edgeStyle=orthogonalEdgeStyle;rounded=0;orthogonalLoop=1;jettySize=auto;html=1;entryX=-0.025;entryY=0.71;entryDx=0;entryDy=0;entryPerimeter=0;" parent="1" source="Ntmfe4oQLPcponl_sA21-50" target="Ntmfe4oQLPcponl_sA21-2" edge="1">
          <mxGeometry relative="1" as="geometry" />
        </mxCell>
        <mxCell id="Ntmfe4oQLPcponl_sA21-60" value="&lt;b&gt;inheritance&lt;/b&gt;" style="edgeLabel;html=1;align=center;verticalAlign=middle;resizable=0;points=[];" parent="Ntmfe4oQLPcponl_sA21-55" vertex="1" connectable="0">
          <mxGeometry x="-0.1033" y="-2" relative="1" as="geometry">
            <mxPoint as="offset" />
          </mxGeometry>
        </mxCell>
        <mxCell id="Ntmfe4oQLPcponl_sA21-62" value="" style="endArrow=none;html=1;rounded=0;exitX=0.5;exitY=0;exitDx=0;exitDy=0;" parent="1" source="Ntmfe4oQLPcponl_sA21-5" edge="1">
          <mxGeometry width="50" height="50" relative="1" as="geometry">
            <mxPoint x="200" y="100" as="sourcePoint" />
            <mxPoint x="200" y="10" as="targetPoint" />
          </mxGeometry>
        </mxCell>
        <mxCell id="Ntmfe4oQLPcponl_sA21-66" value="creates / schedules" style="edgeLabel;html=1;align=center;verticalAlign=middle;resizable=0;points=[];" parent="Ntmfe4oQLPcponl_sA21-62" vertex="1" connectable="0">
          <mxGeometry x="0.044" y="-1" relative="1" as="geometry">
            <mxPoint as="offset" />
          </mxGeometry>
        </mxCell>
        <mxCell id="Ntmfe4oQLPcponl_sA21-63" value="" style="endArrow=none;html=1;rounded=0;entryX=0.502;entryY=0.975;entryDx=0;entryDy=0;entryPerimeter=0;exitX=0.459;exitY=-0.006;exitDx=0;exitDy=0;exitPerimeter=0;" parent="1" source="Ntmfe4oQLPcponl_sA21-9" target="Ntmfe4oQLPcponl_sA21-8" edge="1">
          <mxGeometry width="50" height="50" relative="1" as="geometry">
            <mxPoint x="200" y="350" as="sourcePoint" />
            <mxPoint x="450" y="420" as="targetPoint" />
            <Array as="points" />
          </mxGeometry>
        </mxCell>
        <mxCell id="Ntmfe4oQLPcponl_sA21-67" value="plays" style="edgeLabel;html=1;align=center;verticalAlign=middle;resizable=0;points=[];" parent="Ntmfe4oQLPcponl_sA21-63" vertex="1" connectable="0">
          <mxGeometry x="0.1838" y="3" relative="1" as="geometry">
            <mxPoint as="offset" />
          </mxGeometry>
        </mxCell>
        <mxCell id="Ntmfe4oQLPcponl_sA21-64" value="" style="endArrow=none;html=1;rounded=0;exitX=0.902;exitY=0;exitDx=0;exitDy=0;exitPerimeter=0;entryX=0.167;entryY=0.988;entryDx=0;entryDy=0;entryPerimeter=0;" parent="1" source="Ntmfe4oQLPcponl_sA21-21" target="Ntmfe4oQLPcponl_sA21-12" edge="1">
          <mxGeometry width="50" height="50" relative="1" as="geometry">
            <mxPoint x="300" y="540" as="sourcePoint" />
            <mxPoint x="350" y="490" as="targetPoint" />
          </mxGeometry>
        </mxCell>
        <mxCell id="Ntmfe4oQLPcponl_sA21-69" value="reserves" style="edgeLabel;html=1;align=center;verticalAlign=middle;resizable=0;points=[];" parent="Ntmfe4oQLPcponl_sA21-64" vertex="1" connectable="0">
          <mxGeometry x="0.0734" y="-1" relative="1" as="geometry">
            <mxPoint as="offset" />
          </mxGeometry>
        </mxCell>
        <mxCell id="Ntmfe4oQLPcponl_sA21-65" value="" style="endArrow=none;html=1;rounded=0;exitX=0.085;exitY=-0.035;exitDx=0;exitDy=0;exitPerimeter=0;entryX=0.944;entryY=1.063;entryDx=0;entryDy=0;entryPerimeter=0;" parent="1" source="Ntmfe4oQLPcponl_sA21-25" target="Ntmfe4oQLPcponl_sA21-12" edge="1">
          <mxGeometry width="50" height="50" relative="1" as="geometry">
            <mxPoint x="430" y="550" as="sourcePoint" />
            <mxPoint x="480" y="500" as="targetPoint" />
          </mxGeometry>
        </mxCell>
        <mxCell id="Ntmfe4oQLPcponl_sA21-68" value="shown in" style="edgeLabel;html=1;align=center;verticalAlign=middle;resizable=0;points=[];" parent="Ntmfe4oQLPcponl_sA21-65" vertex="1" connectable="0">
          <mxGeometry x="-0.1313" y="-2" relative="1" as="geometry">
            <mxPoint as="offset" />
          </mxGeometry>
        </mxCell>
        <mxCell id="F9L7F8cB3G1es3dTPRRW-1" value="" style="endArrow=none;html=1;rounded=0;exitX=0.075;exitY=0.004;exitDx=0;exitDy=0;exitPerimeter=0;entryX=1.02;entryY=0.072;entryDx=0;entryDy=0;entryPerimeter=0;" parent="1" source="Ntmfe4oQLPcponl_sA21-45" target="Ntmfe4oQLPcponl_sA21-4" edge="1">
          <mxGeometry width="50" height="50" relative="1" as="geometry">
            <mxPoint x="400" y="-110" as="sourcePoint" />
            <mxPoint x="450" y="-160" as="targetPoint" />
          </mxGeometry>
        </mxCell>
        <mxCell id="F9L7F8cB3G1es3dTPRRW-2" value="Manage" style="edgeLabel;html=1;align=center;verticalAlign=middle;resizable=0;points=[];" parent="F9L7F8cB3G1es3dTPRRW-1" vertex="1" connectable="0">
          <mxGeometry x="0.0712" y="-1" relative="1" as="geometry">
            <mxPoint as="offset" />
          </mxGeometry>
        </mxCell>
      </root>
    </mxGraphModel>
  </diagram>
</mxfile>
